<?xml version="1.0" standalone="no"?>
<!DOCTYPE svg PUBLIC "-//W3C//DTD SVG 20010904//EN"
 "http://www.w3.org/TR/2001/REC-SVG-20010904/DTD/svg10.dtd">
<svg version="1.0" xmlns="http://www.w3.org/2000/svg"
 width="866.000000pt" height="650.000000pt" viewBox="0 0 866.000000 650.000000"
 preserveAspectRatio="xMidYMid meet">

<g transform="translate(0.000000,650.000000) scale(0.100000,-0.100000)"
fill="#000000" stroke="none">
<path d="M2182 4465 c-160 -36 -255 -148 -282 -333 -14 -95 -13 -1243 1 -1317
20 -107 85 -201 169 -245 83 -43 144 -52 309 -48 150 3 158 4 222 34 83 40
133 90 172 172 29 62 31 74 37 236 4 94 5 177 3 184 -4 9 -35 12 -132 10
l-126 -3 -5 -150 c-6 -173 -14 -193 -86 -221 -58 -22 -196 -16 -237 11 -58 38
-62 56 -65 338 l-3 257 326 0 326 0 -3 403 c-3 398 -3 403 -27 462 -35 86
-115 164 -201 195 -83 29 -299 38 -398 15z m299 -261 c64 -37 69 -61 69 -321
l0 -233 -190 0 -190 0 0 230 c0 284 5 302 97 336 53 20 171 13 214 -12z"/>
<path d="M3512 4469 c-61 -12 -148 -53 -199 -95 l-43 -35 -1 45 c-1 25 -2 52
-3 59 -1 9 -36 13 -133 15 l-133 3 0 -1211 0 -1210 135 0 135 0 0 305 0 306
38 -30 c92 -73 199 -106 323 -99 137 8 232 74 281 197 23 56 23 56 26 746 3
722 2 755 -40 840 -67 134 -216 198 -386 164z m110 -274 c54 -40 53 -32 53
-695 0 -673 1 -660 -59 -703 -26 -18 -44 -22 -106 -22 -63 1 -85 6 -140 32
-36 18 -73 38 -83 46 -16 13 -17 54 -15 648 l3 634 55 33 c74 44 102 52 190
49 57 -2 82 -7 102 -22z"/>
<path d="M4398 4465 c-78 -20 -131 -48 -178 -95 -85 -85 -110 -177 -110 -412
l0 -168 129 0 129 0 4 173 c3 163 4 174 27 206 32 45 76 61 165 61 87 0 115
-9 150 -46 36 -39 46 -102 46 -284 0 -151 -1 -160 -21 -170 -11 -7 -106 -40
-210 -75 -281 -96 -327 -124 -381 -233 l-33 -67 0 -295 c0 -323 3 -345 58
-427 45 -68 121 -105 227 -111 122 -7 218 22 307 94 23 19 44 34 47 34 3 0 6
-25 6 -55 l0 -55 135 0 136 0 -3 818 c-3 747 -5 821 -21 869 -38 113 -119 194
-230 229 -72 23 -302 28 -379 9z m362 -1288 l0 -313 -52 -31 c-111 -66 -242
-81 -293 -33 -37 35 -45 79 -45 257 0 290 4 296 265 396 50 20 98 36 108 36
16 1 17 -20 17 -312z"/>
<path d="M5713 4469 c-61 -12 -129 -44 -190 -90 -29 -22 -54 -36 -55 -32 -1 4
-2 31 -2 58 l-1 50 -133 3 -132 3 0 -961 0 -960 130 0 130 0 0 785 0 786 25
25 c72 72 259 110 317 64 15 -11 32 -38 38 -58 6 -24 10 -314 10 -819 l0 -783
130 0 130 0 2 797 3 797 74 40 c64 34 85 40 151 44 74 4 78 3 111 -26 l34 -30
3 -811 2 -811 135 0 136 0 -3 858 -3 857 -26 55 c-32 68 -69 106 -133 136
-132 62 -316 30 -459 -80 -26 -20 -51 -36 -56 -36 -5 0 -19 15 -30 34 -54 87
-200 133 -338 105z"/>
</g>
</svg>
