<?xml version="1.0" standalone="no"?>
<!DOCTYPE svg PUBLIC "-//W3C//DTD SVG 20010904//EN"
 "http://www.w3.org/TR/2001/REC-SVG-20010904/DTD/svg10.dtd">
<svg version="1.0" xmlns="http://www.w3.org/2000/svg"
 width="225.000000pt" height="225.000000pt" viewBox="0 0 225.000000 225.000000"
 preserveAspectRatio="xMidYMid meet">

<g transform="translate(0.000000,225.000000) scale(0.100000,-0.100000)"
fill="#000000" stroke="none">
<path d="M1353 1339 c-125 -24 -216 -128 -230 -262 -15 -147 73 -237 220 -225
78 7 133 34 183 91 104 118 98 315 -11 373 -49 26 -106 34 -162 23z m92 -124
c33 -32 35 -118 4 -183 -29 -59 -91 -90 -144 -72 -43 14 -57 39 -57 101 0 131
124 228 197 154z"/>
<path d="M275 1328 c-2 -7 -20 -107 -40 -223 -20 -116 -38 -218 -41 -227 -5
-16 2 -18 55 -18 48 0 61 3 65 18 4 15 26 130 26 139 0 2 20 3 45 3 156 0 246
68 247 188 0 103 -50 132 -233 132 -87 0 -121 -3 -124 -12z m216 -98 c27 -15
24 -56 -6 -85 -19 -20 -34 -25 -75 -25 l-52 0 7 43 c12 76 12 77 61 77 25 0
54 -5 65 -10z"/>
<path d="M715 1328 c-2 -7 -20 -107 -40 -223 -20 -116 -38 -218 -41 -227 -5
-16 2 -18 54 -18 68 0 65 -4 82 103 12 74 14 77 39 77 24 0 31 -9 65 -90 l39
-90 75 0 c55 0 73 3 69 13 -3 6 -25 48 -50 92 l-45 80 41 21 c113 56 128 207
25 254 -36 16 -66 20 -176 20 -97 0 -134 -3 -137 -12z m245 -104 c18 -21 2
-65 -30 -81 -14 -7 -49 -13 -78 -13 l-53 0 6 38 c13 74 11 72 79 72 45 0 67
-4 76 -16z"/>
<path d="M1696 1314 c-23 -117 -78 -445 -74 -449 11 -11 236 -7 276 5 53 16
117 70 142 120 25 49 45 157 36 201 -10 53 -41 96 -88 121 -36 19 -63 23 -164
26 l-122 4 -6 -28z m199 -89 c43 -17 59 -53 51 -117 -10 -93 -51 -137 -137
-148 -59 -8 -57 -19 -27 153 l22 127 28 0 c16 0 44 -7 63 -15z"/>
</g>
</svg>
